<?xml version="1.0" encoding="UTF-8"?>
<svg id="Layer_1" xmlns="http://www.w3.org/2000/svg" version="1.1" viewBox="0 0 1920 1080">
  <!-- Generator: Adobe Illustrator 29.8.4, SVG Export Plug-In . SVG Version: 2.1.1 Build 6)  -->
  <defs>
    <style>
      .st0 {
        fill: #fff;
      }
    </style>
  </defs>
  <path class="st0" d="M335.01,496.41v11.43h33.67c3.3,0,6,2.7,6,6v70.42h42.88v-70.42c0-3.3,2.7-6,6-6h33.21v-11.43h-121.75Z"/>
  <path class="st0" d="M598.44,496.41h-41.91v32.43c0,3.3-2.7,6-6,6h-33.79c-3.3,0-6-2.7-6-6v-32.43h-41.91v87.85h41.91v-32.06c0-3.3,2.7-6,6-6h33.79c3.3,0,6,2.7,6,6v32.06h41.91v-87.85Z"/>
  <path class="st0" d="M655.23,566.94v-15.03c0-3.3,2.7-6,6-6h54.19v-11.36h-54.19c-3.3,0-6-2.7-6-6v-14.87c0-3.3,2.7-6,6-6h61.36v-11.36l-109.27-.04v88l109.27.02v-11.36h-61.36c-3.3,0-6-2.7-6-6Z"/>
  <path class="st0" d="M1232.64,566.94v-15.03c0-3.3,2.7-6,6-6h54.19v-11.36h-54.19c-3.3,0-6-2.7-6-6v-14.87c0-3.3,2.7-6,6-6h61.36v-11.36l-109.27-.04v88l109.27.02v-11.36h-61.36c-3.3,0-6-2.7-6-6Z"/>
  <path class="st0" d="M953.34,496.22l-50.81,88.04h48.45l9.06-15.78c1.65-2.86,5.7-5.2,9-5.2h18.93c3.3,0,6,2.7,6,6v14.97h41.91v-88.04h-82.55ZM987.98,551.93h-12.37c-3.3,0-4.65-2.34-3-5.2l18.37-31.82c1.65-2.86,3-2.5,3,.8v30.21c0,3.3-2.7,6-6,6Z"/>
  <path class="st0" d="M1502.49,496.22l-50.81,88.04h48.45l9.06-15.78c1.65-2.86,5.7-5.2,9-5.2h18.93c3.3,0,6,2.7,6,6v14.97h41.91v-88.04h-82.55ZM1537.13,551.93h-12.37c-3.3,0-4.65-2.34-3-5.2l18.37-31.82c1.65-2.86,3-2.5,3,.8v30.21c0,3.3-2.7,6-6,6Z"/>
  <path class="st0" d="M1156.88,540.63l12.69-17.45c1.94-2.67,1.94-7.04,0-9.71l-8.85-12.17c-1.94-2.67-6.23-4.86-9.53-4.86l-99.75-.13v87.94h41.91v-70.5c0-3.3,2.7-6,6-6h23.64c3.3,0,4.41,2.18,2.47,4.85l-20.63,28.37c-1.94,2.67-1.91,7.01.06,9.66l25.16,33.63h52.32l-25.42-33.97c-1.98-2.64-2-6.99-.06-9.66Z"/>
  <path class="st0" d="M1402.44,564.23c0,3.3-1.35,3.66-3,.8l-36.69-63.55c-1.65-2.86-5.7-5.2-9-5.21l-42.89-.03v87.96h41.91v-68.57c0-3.3,1.35-3.66,3-.8l37.05,64.18c1.65,2.86,5.7,5.2,9,5.2h42.52v-88h-41.91v68.02Z"/>
  <g>
    <path class="st0" d="M878.17,496.23h-125.7c-8.44,0-15.31,6.87-15.31,15.31v57.51c0,8.44,6.87,15.31,15.31,15.31h125.7c8.44,0,15.31-6.87,15.31-15.31v-57.51c0-8.44-6.87-15.31-15.31-15.31ZM891.66,514.48v51.63c0,7.19-5.85,13.04-13.04,13.04h-126.58c-7.19,0-13.04-5.85-13.04-13.04v-51.63c0-7.19,5.85-13.04,13.04-13.04h126.58c7.19,0,13.04,5.85,13.04,13.04Z"/>
    <path class="st0" d="M862.92,506.17h-95.18c-6.75,0-12.24,5.49-12.24,12.24v43.77c0,6.75,5.49,12.24,12.24,12.24h95.18c6.75,0,12.24-5.49,12.24-12.24v-43.77c0-6.75-5.49-12.24-12.24-12.24ZM873.33,521.35v37.9c0,5.5-4.47,9.97-9.97,9.97h-96.07c-5.5,0-9.97-4.47-9.97-9.97v-37.9c0-5.5,4.47-9.97,9.97-9.97h96.07c5.5,0,9.97,4.47,9.97,9.97Z"/>
    <path class="st0" d="M848.7,516.11h-66.74c-5.05,0-9.17,4.11-9.17,9.17v30.04c0,5.05,4.11,9.17,9.17,9.17h66.74c5.05,0,9.17-4.11,9.17-9.17v-30.04c0-5.05-4.11-9.17-9.17-9.17ZM856.04,528.21v24.16c0,3.8-3.09,6.9-6.9,6.9h-67.63c-3.8,0-6.9-3.09-6.9-6.9v-24.16c0-3.8,3.09-6.9,6.9-6.9h67.63c3.8,0,6.9,3.09,6.9,6.9Z"/>
    <path class="st0" d="M833.44,526.96h-36.23c-3.36,0-6.1,2.73-6.1,6.1v14.49c0,3.36,2.73,6.1,6.1,6.1h36.23c3.36,0,6.1-2.73,6.1-6.1v-14.49c0-3.36-2.73-6.1-6.1-6.1ZM833.88,548.42h-37.11c-2.11,0-3.83-1.72-3.83-3.83v-8.61c0-2.11,1.72-3.83,3.83-3.83h37.11c2.11,0,3.83,1.72,3.83,3.83v8.61c0,2.11-1.72,3.83-3.83,3.83Z"/>
  </g>
</svg>